Coordinates
version=1
nRows=32
nColumns=18
inDegrees=yes

Units are S.I. units (second, meters, Newtons, ...)
If the header above contains a line with 'inDegrees', this indicates whether rotational values are in degrees (yes) or radians (no).

endheader
time	ground_thorax_rot_x	ground_thorax_rot_y	ground_thorax_rot_z	ground_thorax_tx	ground_thorax_ty	ground_thorax_tz	clav_prot	clav_elev	scapula_abduction	scapula_elevation	scapula_upward_rot	scapula_winging	plane_elv	shoulder_elv	axial_rot	elbow_flexion	pro_sup
      3.00000000	      0.51728761	     -2.21252949	     -5.97635817	     -0.04525174	      0.01597390	      0.03323598	    -20.71036417	    -18.59821577	    -20.13524575	    -13.97636035	     11.24248994	     22.26212356	    -26.00000000	     29.51783022	     36.93367503	     24.19001137	   -166.43784705
      3.02000000	      0.51728761	     -2.15828280	     -6.25504873	     -0.04493561	      0.01520005	      0.03327133	    -20.53742615	    -18.62874126	    -20.12175686	    -13.87536524	     10.78473904	     22.34435894	    -26.00000000	     29.06253020	     36.96030744	     24.20302922	   -166.46554788
      3.04000000	      0.51728761	     -1.99784457	     -6.46266009	     -0.04471730	      0.01467363	      0.03318058	    -20.44547259	    -18.78524346	    -20.29629536	    -13.84261805	     10.20138004	     22.54204582	    -26.00000000	     28.83647691	     38.10720292	     24.10563182	   -166.84279494
      3.06000000	      0.51728761	     -1.94727017	     -6.70822378	     -0.04446931	      0.01395264	      0.03327333	    -20.29828630	    -18.80999464	    -20.28185641	    -13.75416796	      9.81074551	     22.61032001	    -26.00000000	     28.44698241	     38.13297043	     24.12017101	   -166.86733995
      3.08000000	      0.51728761	     -1.77738679	     -6.93989620	     -0.04426739	      0.01342817	      0.03320549	    -20.26934109	    -18.95989947	    -20.46465215	    -13.75827799	      9.38274606	     22.78287393	    -26.00000000	     28.20677652	     39.42380072	     24.01929815	   -167.24458052
      3.10000000	      0.51728761	     -1.73432182	     -7.15155763	     -0.04412625	      0.01276169	      0.03330245	    -20.14746222	    -18.97769184	    -20.45148835	    -13.68195771	      9.05840224	     22.83722516	    -26.00000000	     27.88790166	     39.44604333	     24.03321613	   -167.26520190
      3.12000000	      0.51728761	     -1.57915989	     -7.42190132	     -0.04400105	      0.01208481	      0.03313940	    -20.04935951	    -19.03059743	    -20.45431931	    -13.63978891	      8.75802146	     22.91176949	    -26.00000000	     27.68159561	     39.85066084	     24.01090380	   -167.36299051
      3.14000000	      0.51728761	     -1.43806364	     -7.56757667	     -0.04404723	      0.01169974	      0.03318295	    -20.14118696	    -19.15345079	    -20.74532898	    -13.67373903	      8.50277410	     23.05544957	    -26.00000000	     27.40780937	     41.25812632	     23.89307502	   -168.23551648
      3.16000000	      0.51728761	     -1.41770847	     -7.73331129	     -0.04410601	      0.01114804	      0.03321014	    -20.05381938	    -19.16251873	    -20.73766012	    -13.61448096	      8.26596672	     23.09259862	    -26.00000000	     27.18804947	     41.27556768	     23.90130154	   -168.24743436
      3.18000000	      0.51728761	     -1.40080759	     -7.89152936	     -0.04425255	      0.01062430	      0.03319694	    -19.97689362	    -19.16823123	    -20.73213979	    -13.55992779	      8.05572127	     23.12413797	    -26.00000000	     27.00157339	     41.29706570	     23.90349730	   -168.25811039
      3.20000000	      0.51728761	     -1.33696293	     -8.07389673	     -0.04443824	      0.01029896	      0.03304649	    -20.00325814	    -19.29111990	    -20.84931101	    -13.61310176	      7.88943250	     23.23684167	    -26.00000000	     26.84021567	     42.49162957	     23.70742798	   -168.46754135
      3.22000000	      0.51728761	     -1.35253050	     -8.20915212	     -0.04474991	      0.00986511	      0.03296936	    -19.94900712	    -19.28381614	    -20.85919976	    -13.56109936	      7.72339171	     23.25577465	    -26.00000000	     26.70328696	     42.49947327	     23.70211672	   -168.47849108
      3.24000000	      0.51728761	     -1.38324384	     -8.34107992	     -0.04512899	      0.00947148	      0.03283955	    -19.90506181	    -19.26985186	    -20.87698595	    -13.50941440	      7.57644713	     23.26881628	    -26.00000000	     26.59260953	     42.50640140	     23.68443118	   -168.49025598
      3.26000000	      0.51728761	     -1.49481072	     -8.41636519	     -0.04562361	      0.00931383	      0.03282456	    -19.88389129	    -19.31378848	    -20.91309269	    -13.50620380	      7.43882878	     23.31897610	    -26.00000000	     26.45200684	     42.51784583	     23.39837918	   -168.61724159
      3.28000000	      0.51728761	     -1.55136407	     -8.54834291	     -0.04614780	      0.00898204	      0.03260675	    -19.85758922	    -19.28096668	    -20.94611142	    -13.44956335	      7.32539834	     23.31737305	    -26.00000000	     26.38565608	     42.51766613	     23.36744737	   -168.63244982
      3.30000000	      0.51728761	     -1.75134262	     -8.54126267	     -0.04684113	      0.00894132	      0.03268083	    -19.86098131	    -19.26627112	    -21.01746024	    -13.41250685	      7.22680594	     23.32948833	    -26.00000000	     26.20604468	     42.33792050	     22.98516710	   -168.87001408
      3.32000000	      0.51728761	     -1.96310961	     -8.60285543	     -0.04762968	      0.00875691	      0.03240355	    -19.69298383	    -19.17777830	    -20.75208324	    -13.33072042	      7.21320199	     23.24599786	    -26.00000000	     26.17697911	     41.50308412	     22.70181309	   -171.18460417
      3.34000000	      0.51728761	     -2.15956641	     -8.61907221	     -0.04838201	      0.00867224	      0.03241432	    -19.71281532	    -19.12123426	    -20.85640098	    -13.26533397	      7.12679898	     23.23439250	    -26.00000000	     26.05458336	     41.31242776	     22.40632837	   -171.30955374
      3.36000000	      0.51728761	     -2.38587678	     -8.64414271	     -0.04928436	      0.00851940	      0.03221323	    -19.58273092	    -18.98443258	    -20.65844136	    -13.15395038	      7.13433921	     23.12599208	    -26.00000000	     25.98883406	     40.05998815	     22.01648758	   -173.17164430
      3.38000000	      0.51728761	     -2.60511282	     -8.59758354	     -0.05019313	      0.00855129	      0.03224420	    -19.59547279	    -18.92076458	    -20.75492845	    -13.08129526	      7.04307142	     23.11030484	    -26.00000000	     25.88381117	     39.63508708	     21.51241252	   -173.38130076
      3.40000000	      0.51728761	     -2.92356884	     -8.62481277	     -0.05109784	      0.00836811	      0.03205084	    -19.33589546	    -18.78066849	    -20.38002611	    -12.93764866	      6.96615246	     22.99096958	    -26.00000000	     26.01938595	     37.68400158	     21.24305258	   -175.16460093
      3.42000000	      0.51728761	     -3.17449474	     -8.60277318	     -0.05204463	      0.00830668	      0.03196859	    -19.24838536	    -18.67137097	    -20.26984486	    -12.84153464	      6.94133465	     22.91469457	    -26.00000000	     26.00802903	     36.50385758	     20.76616949	   -176.54179539
      3.44000000	      0.51728761	     -3.35243131	     -8.53994391	     -0.05302985	      0.00835788	      0.03196437	    -19.25838159	    -18.60470628	    -20.33417651	    -12.77824815	      6.89505950	     22.88829696	    -26.00000000	     25.92826659	     35.84149993	     20.12091543	   -176.94703991
      3.46000000	      0.51728761	     -3.72042889	     -8.52847918	     -0.05389707	      0.00822492	      0.03183394	    -18.98994637	    -18.51906337	    -19.93944758	    -12.67153008	      6.80035871	     22.80145841	    -26.00000000	     26.19727858	     33.69659016	     19.86939139	   -179.17663563
      3.48000000	      0.51728761	     -3.88198290	     -8.44597903	     -0.05488358	      0.00828835	      0.03181775	    -19.00692767	    -18.48502240	    -19.98727120	    -12.64245378	      6.78645450	     22.78866504	    -26.00000000	     26.15271241	     32.97196310	     19.19077078	   -179.70949098
      3.50000000	      0.51728761	     -4.17437856	     -8.42668868	     -0.05572220	      0.00820313	      0.03162457	    -18.77473475	    -18.46545170	    -19.62648501	    -12.59427458	      6.71208973	     22.74172161	    -26.00000000	     26.48408419	     31.17931885	     18.89900727	   -182.73180801
      3.52000000	      0.51728761	     -4.29265110	     -8.32978375	     -0.05664859	      0.00830499	      0.03157105	    -18.79542778	    -18.49934043	    -19.66745717	    -12.61575978	      6.69009173	     22.77013192	    -26.00000000	     26.50709384	     30.54588851	     18.24997661	   -183.06619092
      3.54000000	      0.51728761	     -4.53162732	     -8.30935136	     -0.05745366	      0.00823259	      0.03131392	    -18.56809717	    -18.53464983	    -19.30779067	    -12.60716190	      6.60410810	     22.75653833	    -26.00000000	     26.92407759	     28.56004305	     18.06809730	   -185.95613144
      3.56000000	      0.51728761	     -4.66465371	     -8.23261529	     -0.05831289	      0.00826224	      0.03109192	    -18.46139208	    -18.60660763	    -19.14444400	    -12.63705683	      6.53050688	     22.78801061	    -26.00000000	     27.20653256	     27.15128960	     17.73289198	   -187.24025491
      3.58000000	      0.51728761	     -4.74275001	     -8.15945018	     -0.05913724	      0.00833159	      0.03080778	    -18.41630860	    -18.72563368	    -19.04629579	    -12.72064081	      6.50821605	     22.84984640	    -26.00000000	     27.46971714	     26.04885304	     17.39187082	   -188.92170432
      3.60000000	      0.51728761	     -4.80309645	     -8.09249998	     -0.05995344	      0.00843810	      0.03050443	    -18.36591787	    -18.87526184	    -18.92259524	    -12.83116349	      6.49899085	     22.92559793	    -26.00000000	     27.73826074	     24.75327494	     17.07855348	   -190.14841590
      3.62000000	      0.51728761	     -4.89539858	     -7.87984093	     -0.06088822	      0.00848984	      0.03011811	    -18.24166869	    -18.89295028	    -18.68637299	    -12.84298353	      6.51836096	     22.90231794	    -26.00000000	     27.91196938	     24.06463442	     16.77746000	   -190.28052736
